<svg width="1920" height="668" viewBox="0 0 1920 668" fill="none" xmlns="http://www.w3.org/2000/svg">
<g clip-path="url(#clip0_815_109)">
<g opacity="0.2">
<path d="M2067.16 110.774C2007.98 130.918 1891.24 218.656 1897.81 408.457C1906.01 645.708 2085.07 794.176 2129.83 1018C2162.87 1183.19 2158.19 1596.95 1956.75 1770.78" stroke="url(#paint0_linear_815_109)" stroke-width="7.78561"/>
<path d="M1978.39 142.68C1919.2 162.824 1802.47 250.562 1809.03 440.362C1817.24 677.613 1996.3 826.081 2041.06 1049.9C2074.1 1215.1 2069.41 1628.85 1867.97 1802.69" stroke="url(#paint1_linear_815_109)" stroke-width="7.78561"/>
<path d="M1888.39 170.95C1829.2 191.094 1712.47 278.832 1719.03 468.633C1727.24 705.883 1906.3 854.351 1951.06 1078.17C1984.1 1243.37 1979.41 1657.12 1777.97 1830.96" stroke="url(#paint2_linear_815_109)" stroke-width="7.78561"/>
<path d="M1797.18 195C1737.99 215.143 1621.25 302.881 1627.82 492.682C1636.03 729.933 1815.08 878.401 1859.85 1102.22C1892.89 1267.42 1888.2 1681.17 1686.76 1855.01" stroke="url(#paint3_linear_815_109)" stroke-width="7.78561"/>
<path d="M1704.79 214.083C1645.61 234.227 1528.87 321.965 1535.44 511.766C1543.64 749.016 1722.7 897.484 1767.46 1121.31C1800.5 1286.5 1795.82 1700.26 1594.38 1874.09" stroke="url(#paint4_linear_815_109)" stroke-width="7.78561"/>
<path d="M1611.39 227.256C1552.2 247.4 1435.46 335.138 1442.03 524.939C1450.23 762.189 1629.29 910.657 1674.06 1134.48C1707.09 1299.68 1702.41 1713.43 1500.97 1887.26" stroke="url(#paint5_linear_815_109)" stroke-width="7.78561"/>
<path d="M1517.25 233.334C1458.06 253.478 1341.32 341.216 1347.89 531.017C1356.1 768.267 1535.15 916.736 1579.92 1140.56C1612.96 1305.75 1608.27 1719.51 1406.83 1893.34" stroke="url(#paint6_linear_815_109)" stroke-width="7.78561"/>
<path d="M1422.95 230.861C1363.76 251.005 1247.02 338.743 1253.59 528.544C1261.8 765.794 1440.85 914.263 1485.62 1138.08C1518.66 1303.28 1513.97 1717.04 1312.53 1890.87" stroke="url(#paint7_linear_815_109)" stroke-width="7.78561"/>
<path d="M1329.47 218.156C1270.29 238.3 1153.55 326.038 1160.12 515.839C1168.32 753.09 1347.38 901.558 1392.14 1125.38C1425.18 1290.58 1420.49 1704.33 1219.06 1878.17" stroke="url(#paint8_linear_815_109)" stroke-width="7.78561"/>
<path d="M1238.42 193.508C1179.23 213.652 1062.49 301.39 1069.06 491.191C1077.27 728.441 1256.32 876.909 1301.09 1100.73C1334.13 1265.93 1329.44 1679.68 1128 1853.52" stroke="url(#paint9_linear_815_109)" stroke-width="7.78561"/>
<path d="M1136.37 148.968C1077.18 169.111 960.441 256.849 967.007 446.65C975.214 683.901 1154.27 832.369 1199.04 1056.19C1232.07 1221.39 1227.39 1635.14 1025.95 1808.98" stroke="url(#paint10_linear_815_109)" stroke-width="7.78561"/>
<path d="M1048.93 113.559C989.741 133.703 873.005 221.441 879.571 411.242C887.778 648.492 1066.83 796.96 1111.6 1020.78C1144.64 1185.98 1139.95 1599.73 938.511 1773.57" stroke="url(#paint11_linear_815_109)" stroke-width="7.78561"/>
<path d="M958.868 85.4957C899.68 105.64 782.944 193.378 789.51 383.178C797.717 620.429 976.774 768.897 1021.54 992.718C1054.58 1157.92 1049.89 1571.67 848.45 1745.5" stroke="url(#paint12_linear_815_109)" stroke-width="7.78561"/>
<path d="M866.799 64.9506C807.61 85.0945 690.875 172.832 697.441 362.633C705.647 599.884 884.704 748.352 929.469 972.173C962.508 1137.37 957.819 1551.12 756.38 1724.96" stroke="url(#paint13_linear_815_109)" stroke-width="7.78561"/>
<path d="M773.369 51.9205C714.181 72.0645 597.445 159.802 604.011 349.603C612.218 586.854 791.275 735.322 836.039 959.143C869.078 1124.34 864.39 1538.09 662.95 1711.93" stroke="url(#paint14_linear_815_109)" stroke-width="7.78561"/>
<path d="M679.207 46.2427C620.019 66.3866 503.284 154.125 509.849 343.925C518.056 581.176 697.113 729.644 741.877 953.465C774.917 1118.66 770.228 1532.42 568.789 1706.25" stroke="url(#paint15_linear_815_109)" stroke-width="7.78561"/>
<path d="M584.884 47.6251C525.696 67.769 408.961 155.507 415.526 345.308C423.733 582.558 602.79 731.026 647.554 954.848C680.594 1120.04 675.905 1533.8 474.466 1707.63" stroke="url(#paint16_linear_815_109)" stroke-width="7.78561"/>
<path d="M490.897 55.696C431.709 75.84 314.974 163.578 321.539 353.378C329.746 590.629 508.803 739.097 553.567 962.919C586.607 1128.12 581.918 1541.87 380.479 1715.7" stroke="url(#paint17_linear_815_109)" stroke-width="7.78561"/>
<path d="M397.661 70.0419C338.473 90.1859 221.738 177.924 228.303 367.724C236.51 604.975 415.567 753.443 460.331 977.265C493.371 1142.46 488.682 1556.22 287.243 1730.05" stroke="url(#paint18_linear_815_109)" stroke-width="7.78561"/>
<path d="M305.517 90.2493C246.329 110.393 129.594 198.131 136.159 387.932C144.366 625.182 323.423 773.651 368.187 997.472C401.227 1162.67 396.538 1576.42 195.099 1750.26" stroke="url(#paint19_linear_815_109)" stroke-width="7.78561"/>
<path d="M214.749 115.938C155.561 136.082 38.8253 223.82 45.3907 413.62C53.5975 650.871 232.655 799.339 277.419 1023.16C310.458 1188.36 305.77 1602.11 104.33 1775.95" stroke="url(#paint20_linear_815_109)" stroke-width="7.78561"/>
<path d="M125.624 146.785C66.4356 166.928 -50.2997 254.666 -43.7343 444.467C-35.5275 681.718 143.53 830.186 188.294 1054.01C221.333 1219.2 216.645 1632.96 15.2054 1806.79" stroke="url(#paint21_linear_815_109)" stroke-width="7.78561"/>
</g>
</g>
<defs>
<linearGradient id="paint0_linear_815_109" x1="2021.38" y1="110.774" x2="2021.38" y2="1770.78" gradientUnits="userSpaceOnUse">
<stop stop-color="white"/>
<stop offset="0.328125" stop-color="white" stop-opacity="0.15"/>
<stop offset="0.677083" stop-color="white" stop-opacity="0"/>
<stop offset="1" stop-color="white" stop-opacity="0.48"/>
</linearGradient>
<linearGradient id="paint1_linear_815_109" x1="1932.61" y1="142.68" x2="1932.61" y2="1802.69" gradientUnits="userSpaceOnUse">
<stop stop-color="white"/>
<stop offset="0.328125" stop-color="white" stop-opacity="0.15"/>
<stop offset="0.677083" stop-color="white" stop-opacity="0"/>
<stop offset="1" stop-color="white" stop-opacity="0.48"/>
</linearGradient>
<linearGradient id="paint2_linear_815_109" x1="1842.61" y1="170.95" x2="1842.61" y2="1830.96" gradientUnits="userSpaceOnUse">
<stop stop-color="white"/>
<stop offset="0.328125" stop-color="white" stop-opacity="0.15"/>
<stop offset="0.677083" stop-color="white" stop-opacity="0"/>
<stop offset="1" stop-color="white" stop-opacity="0.48"/>
</linearGradient>
<linearGradient id="paint3_linear_815_109" x1="1751.4" y1="195" x2="1751.4" y2="1855.01" gradientUnits="userSpaceOnUse">
<stop stop-color="white"/>
<stop offset="0.328125" stop-color="white" stop-opacity="0.15"/>
<stop offset="0.677083" stop-color="white" stop-opacity="0"/>
<stop offset="1" stop-color="white" stop-opacity="0.48"/>
</linearGradient>
<linearGradient id="paint4_linear_815_109" x1="1659.01" y1="214.083" x2="1659.01" y2="1874.09" gradientUnits="userSpaceOnUse">
<stop stop-color="white"/>
<stop offset="0.328125" stop-color="white" stop-opacity="0.15"/>
<stop offset="0.677083" stop-color="white" stop-opacity="0"/>
<stop offset="1" stop-color="white" stop-opacity="0.48"/>
</linearGradient>
<linearGradient id="paint5_linear_815_109" x1="1565.6" y1="227.256" x2="1565.6" y2="1887.26" gradientUnits="userSpaceOnUse">
<stop stop-color="white"/>
<stop offset="0.328125" stop-color="white" stop-opacity="0.15"/>
<stop offset="0.677083" stop-color="white" stop-opacity="0"/>
<stop offset="1" stop-color="white" stop-opacity="0.48"/>
</linearGradient>
<linearGradient id="paint6_linear_815_109" x1="1471.47" y1="233.334" x2="1471.47" y2="1893.34" gradientUnits="userSpaceOnUse">
<stop stop-color="white"/>
<stop offset="0.328125" stop-color="white" stop-opacity="0.15"/>
<stop offset="0.677083" stop-color="white" stop-opacity="0"/>
<stop offset="1" stop-color="white" stop-opacity="0.48"/>
</linearGradient>
<linearGradient id="paint7_linear_815_109" x1="1377.17" y1="230.861" x2="1377.17" y2="1890.87" gradientUnits="userSpaceOnUse">
<stop stop-color="white"/>
<stop offset="0.328125" stop-color="white" stop-opacity="0.15"/>
<stop offset="0.677083" stop-color="white" stop-opacity="0"/>
<stop offset="1" stop-color="white" stop-opacity="0.48"/>
</linearGradient>
<linearGradient id="paint8_linear_815_109" x1="1283.69" y1="218.156" x2="1283.69" y2="1878.17" gradientUnits="userSpaceOnUse">
<stop stop-color="white"/>
<stop offset="0.328125" stop-color="white" stop-opacity="0.15"/>
<stop offset="0.677083" stop-color="white" stop-opacity="0"/>
<stop offset="1" stop-color="white" stop-opacity="0.48"/>
</linearGradient>
<linearGradient id="paint9_linear_815_109" x1="1192.64" y1="193.508" x2="1192.64" y2="1853.52" gradientUnits="userSpaceOnUse">
<stop stop-color="white"/>
<stop offset="0.328125" stop-color="white" stop-opacity="0.15"/>
<stop offset="0.677083" stop-color="white" stop-opacity="0"/>
<stop offset="1" stop-color="white" stop-opacity="0.48"/>
</linearGradient>
<linearGradient id="paint10_linear_815_109" x1="1090.58" y1="148.968" x2="1090.58" y2="1808.98" gradientUnits="userSpaceOnUse">
<stop stop-color="white"/>
<stop offset="0.328125" stop-color="white" stop-opacity="0.15"/>
<stop offset="0.677083" stop-color="white" stop-opacity="0"/>
<stop offset="1" stop-color="white" stop-opacity="0.48"/>
</linearGradient>
<linearGradient id="paint11_linear_815_109" x1="1003.15" y1="113.559" x2="1003.15" y2="1773.57" gradientUnits="userSpaceOnUse">
<stop stop-color="white"/>
<stop offset="0.328125" stop-color="white" stop-opacity="0.15"/>
<stop offset="0.677083" stop-color="white" stop-opacity="0"/>
<stop offset="1" stop-color="white" stop-opacity="0.48"/>
</linearGradient>
<linearGradient id="paint12_linear_815_109" x1="913.087" y1="85.4957" x2="913.087" y2="1745.5" gradientUnits="userSpaceOnUse">
<stop stop-color="white"/>
<stop offset="0.328125" stop-color="white" stop-opacity="0.15"/>
<stop offset="0.677083" stop-color="white" stop-opacity="0"/>
<stop offset="1" stop-color="white" stop-opacity="0.48"/>
</linearGradient>
<linearGradient id="paint13_linear_815_109" x1="821.017" y1="64.9506" x2="821.017" y2="1724.96" gradientUnits="userSpaceOnUse">
<stop stop-color="white"/>
<stop offset="0.328125" stop-color="white" stop-opacity="0.15"/>
<stop offset="0.677083" stop-color="white" stop-opacity="0"/>
<stop offset="1" stop-color="white" stop-opacity="0.48"/>
</linearGradient>
<linearGradient id="paint14_linear_815_109" x1="727.588" y1="51.9205" x2="727.588" y2="1711.93" gradientUnits="userSpaceOnUse">
<stop stop-color="white"/>
<stop offset="0.328125" stop-color="white" stop-opacity="0.15"/>
<stop offset="0.677083" stop-color="white" stop-opacity="0"/>
<stop offset="1" stop-color="white" stop-opacity="0.48"/>
</linearGradient>
<linearGradient id="paint15_linear_815_109" x1="633.426" y1="46.2427" x2="633.426" y2="1706.25" gradientUnits="userSpaceOnUse">
<stop stop-color="white"/>
<stop offset="0.328125" stop-color="white" stop-opacity="0.15"/>
<stop offset="0.677083" stop-color="white" stop-opacity="0"/>
<stop offset="1" stop-color="white" stop-opacity="0.48"/>
</linearGradient>
<linearGradient id="paint16_linear_815_109" x1="539.103" y1="47.6251" x2="539.103" y2="1707.63" gradientUnits="userSpaceOnUse">
<stop stop-color="white"/>
<stop offset="0.328125" stop-color="white" stop-opacity="0.15"/>
<stop offset="0.677083" stop-color="white" stop-opacity="0"/>
<stop offset="1" stop-color="white" stop-opacity="0.48"/>
</linearGradient>
<linearGradient id="paint17_linear_815_109" x1="445.116" y1="55.696" x2="445.116" y2="1715.7" gradientUnits="userSpaceOnUse">
<stop stop-color="white"/>
<stop offset="0.328125" stop-color="white" stop-opacity="0.15"/>
<stop offset="0.677083" stop-color="white" stop-opacity="0"/>
<stop offset="1" stop-color="white" stop-opacity="0.48"/>
</linearGradient>
<linearGradient id="paint18_linear_815_109" x1="351.88" y1="70.0419" x2="351.88" y2="1730.05" gradientUnits="userSpaceOnUse">
<stop stop-color="white"/>
<stop offset="0.328125" stop-color="white" stop-opacity="0.15"/>
<stop offset="0.677083" stop-color="white" stop-opacity="0"/>
<stop offset="1" stop-color="white" stop-opacity="0.48"/>
</linearGradient>
<linearGradient id="paint19_linear_815_109" x1="259.736" y1="90.2493" x2="259.736" y2="1750.26" gradientUnits="userSpaceOnUse">
<stop stop-color="white"/>
<stop offset="0.328125" stop-color="white" stop-opacity="0.15"/>
<stop offset="0.677083" stop-color="white" stop-opacity="0"/>
<stop offset="1" stop-color="white" stop-opacity="0.48"/>
</linearGradient>
<linearGradient id="paint20_linear_815_109" x1="168.968" y1="115.938" x2="168.968" y2="1775.95" gradientUnits="userSpaceOnUse">
<stop stop-color="white"/>
<stop offset="0.328125" stop-color="white" stop-opacity="0.15"/>
<stop offset="0.677083" stop-color="white" stop-opacity="0"/>
<stop offset="1" stop-color="white" stop-opacity="0.48"/>
</linearGradient>
<linearGradient id="paint21_linear_815_109" x1="79.8427" y1="146.785" x2="79.8427" y2="1806.79" gradientUnits="userSpaceOnUse">
<stop stop-color="white"/>
<stop offset="0.328125" stop-color="white" stop-opacity="0.15"/>
<stop offset="0.677083" stop-color="white" stop-opacity="0"/>
<stop offset="1" stop-color="white" stop-opacity="0.48"/>
</linearGradient>
<clipPath id="clip0_815_109">
<rect width="1920" height="668" fill="white"/>
</clipPath>
</defs>
</svg>
