<svg width="827" height="1080" viewBox="0 0 827 1080" fill="none" xmlns="http://www.w3.org/2000/svg">
<g opacity="0.2">
<g opacity="0.5">
<rect x="296.766" y="0.5" width="131.684" height="134" stroke="white"/>
<mask id="path-2-inside-1_335_4273" fill="white">
<path d="M428.949 0H561.633V135H428.949V0Z"/>
</mask>
<path d="M561.633 0H562.633V-1H561.633V0ZM561.633 135V136H562.633V135H561.633ZM428.949 1H561.633V-1H428.949V1ZM560.633 0V135H562.633V0H560.633ZM561.633 134H428.949V136H561.633V134Z" fill="white" mask="url(#path-2-inside-1_335_4273)"/>
<mask id="path-4-inside-2_335_4273" fill="white">
<path d="M561.633 0H694.316V135H561.633V0Z"/>
</mask>
<path d="M694.316 0H695.316V-1H694.316V0ZM694.316 135V136H695.316V135H694.316ZM561.633 1H694.316V-1H561.633V1ZM693.316 0V135H695.316V0H693.316ZM694.316 134H561.633V136H694.316V134Z" fill="white" mask="url(#path-4-inside-2_335_4273)"/>
<mask id="path-6-inside-3_335_4273" fill="white">
<path d="M694.317 0H827V135H694.317V0Z"/>
</mask>
<path d="M827 0H828V-1H827V0ZM827 135V136H828V135H827ZM694.317 1H827V-1H694.317V1ZM826 0V135H828V0H826ZM827 134H694.317V136H827V134Z" fill="white" mask="url(#path-6-inside-3_335_4273)"/>
<mask id="path-8-inside-4_335_4273" fill="white">
<path d="M296.266 135H428.949V270H296.266V135Z"/>
</mask>
<path d="M428.949 270V271H429.949V270H428.949ZM296.266 270H295.266V271H296.266V270ZM427.949 135V270H429.949V135H427.949ZM428.949 269H296.266V271H428.949V269ZM297.266 270V135H295.266V270H297.266Z" fill="white" mask="url(#path-8-inside-4_335_4273)"/>
<mask id="path-10-inside-5_335_4273" fill="white">
<path d="M428.949 135H561.633V270H428.949V135Z"/>
</mask>
<path d="M561.633 270V271H562.633V270H561.633ZM560.633 135V270H562.633V135H560.633ZM561.633 269H428.949V271H561.633V269Z" fill="white" mask="url(#path-10-inside-5_335_4273)"/>
<mask id="path-12-inside-6_335_4273" fill="white">
<path d="M561.633 135H694.316V270H561.633V135Z"/>
</mask>
<path d="M694.316 270V271H695.316V270H694.316ZM693.316 135V270H695.316V135H693.316ZM694.316 269H561.633V271H694.316V269Z" fill="white" mask="url(#path-12-inside-6_335_4273)"/>
<mask id="path-14-inside-7_335_4273" fill="white">
<path d="M694.317 135H827V270H694.317V135Z"/>
</mask>
<path d="M827 270V271H828V270H827ZM826 135V270H828V135H826ZM827 269H694.317V271H827V269Z" fill="white" mask="url(#path-14-inside-7_335_4273)"/>
<mask id="path-16-inside-8_335_4273" fill="white">
<path d="M296.266 270H428.949V405H296.266V270Z"/>
</mask>
<path d="M428.949 405V406H429.949V405H428.949ZM296.266 405H295.266V406H296.266V405ZM427.949 270V405H429.949V270H427.949ZM428.949 404H296.266V406H428.949V404ZM297.266 405V270H295.266V405H297.266Z" fill="white" mask="url(#path-16-inside-8_335_4273)"/>
<mask id="path-18-inside-9_335_4273" fill="white">
<path d="M163.582 270H296.266V405H163.582V270Z"/>
</mask>
<path d="M163.582 271H296.266V269H163.582V271ZM296.266 404H163.582V406H296.266V404Z" fill="white" mask="url(#path-18-inside-9_335_4273)"/>
<mask id="path-20-inside-10_335_4273" fill="white">
<path d="M30.8989 405H163.582V540H30.8989V405Z"/>
</mask>
<path d="M30.8989 406H163.582V404H30.8989V406ZM163.582 539H30.8989V541H163.582V539Z" fill="white" mask="url(#path-20-inside-10_335_4273)"/>
<mask id="path-22-inside-11_335_4273" fill="white">
<path d="M163.582 405H296.266V540H163.582V405Z"/>
</mask>
<path d="M163.582 540H162.582V541H163.582V540ZM296.266 539H163.582V541H296.266V539ZM164.582 540V405H162.582V540H164.582Z" fill="white" mask="url(#path-22-inside-11_335_4273)"/>
<mask id="path-24-inside-12_335_4273" fill="white">
<path d="M163.582 675H296.266V810H163.582V675Z"/>
</mask>
<path d="M163.582 676H296.266V674H163.582V676ZM296.266 809H163.582V811H296.266V809Z" fill="white" mask="url(#path-24-inside-12_335_4273)"/>
<mask id="path-26-inside-13_335_4273" fill="white">
<path d="M428.949 270H561.633V405H428.949V270Z"/>
</mask>
<path d="M561.633 405V406H562.633V405H561.633ZM560.633 270V405H562.633V270H560.633ZM561.633 404H428.949V406H561.633V404Z" fill="white" mask="url(#path-26-inside-13_335_4273)"/>
<mask id="path-28-inside-14_335_4273" fill="white">
<path d="M561.633 270H694.316V405H561.633V270Z"/>
</mask>
<path d="M694.316 405V406H695.316V405H694.316ZM693.316 270V405H695.316V270H693.316ZM694.316 404H561.633V406H694.316V404Z" fill="white" mask="url(#path-28-inside-14_335_4273)"/>
<mask id="path-30-inside-15_335_4273" fill="white">
<path d="M694.317 270H827V405H694.317V270Z"/>
</mask>
<path d="M827 405V406H828V405H827ZM826 270V405H828V270H826ZM827 404H694.317V406H827V404Z" fill="white" mask="url(#path-30-inside-15_335_4273)"/>
<mask id="path-32-inside-16_335_4273" fill="white">
<path d="M296.266 405H428.949V540H296.266V405Z"/>
</mask>
<path d="M428.949 540V541H429.949V540H428.949ZM296.266 540H295.266V541H296.266V540ZM427.949 405V540H429.949V405H427.949ZM428.949 539H296.266V541H428.949V539ZM297.266 540V405H295.266V540H297.266Z" fill="white" mask="url(#path-32-inside-16_335_4273)"/>
<mask id="path-34-inside-17_335_4273" fill="white">
<path d="M428.949 405H561.633V540H428.949V405Z"/>
</mask>
<path d="M561.633 540V541H562.633V540H561.633ZM560.633 405V540H562.633V405H560.633ZM561.633 539H428.949V541H561.633V539Z" fill="white" mask="url(#path-34-inside-17_335_4273)"/>
<mask id="path-36-inside-18_335_4273" fill="white">
<path d="M561.633 405H694.316V540H561.633V405Z"/>
</mask>
<path d="M694.316 540V541H695.316V540H694.316ZM693.316 405V540H695.316V405H693.316ZM694.316 539H561.633V541H694.316V539Z" fill="white" mask="url(#path-36-inside-18_335_4273)"/>
<mask id="path-38-inside-19_335_4273" fill="white">
<path d="M694.317 405H827V540H694.317V405Z"/>
</mask>
<path d="M827 540V541H828V540H827ZM826 405V540H828V405H826ZM827 539H694.317V541H827V539Z" fill="white" mask="url(#path-38-inside-19_335_4273)"/>
<mask id="path-40-inside-20_335_4273" fill="white">
<path d="M296.266 540H428.949V675H296.266V540Z"/>
</mask>
<path d="M428.949 675V676H429.949V675H428.949ZM296.266 675H295.266V676H296.266V675ZM427.949 540V675H429.949V540H427.949ZM428.949 674H296.266V676H428.949V674ZM297.266 675V540H295.266V675H297.266Z" fill="white" mask="url(#path-40-inside-20_335_4273)"/>
<mask id="path-42-inside-21_335_4273" fill="white">
<path d="M428.949 540H561.633V675H428.949V540Z"/>
</mask>
<path d="M561.633 675V676H562.633V675H561.633ZM560.633 540V675H562.633V540H560.633ZM561.633 674H428.949V676H561.633V674Z" fill="white" mask="url(#path-42-inside-21_335_4273)"/>
<mask id="path-44-inside-22_335_4273" fill="white">
<path d="M561.633 540H694.316V675H561.633V540Z"/>
</mask>
<path d="M694.316 675V676H695.316V675H694.316ZM693.316 540V675H695.316V540H693.316ZM694.316 674H561.633V676H694.316V674Z" fill="white" mask="url(#path-44-inside-22_335_4273)"/>
<mask id="path-46-inside-23_335_4273" fill="white">
<path d="M694.317 540H827V675H694.317V540Z"/>
</mask>
<path d="M827 675V676H828V675H827ZM826 540V675H828V540H826ZM827 674H694.317V676H827V674Z" fill="white" mask="url(#path-46-inside-23_335_4273)"/>
<mask id="path-48-inside-24_335_4273" fill="white">
<path d="M296.266 675H428.949V810H296.266V675Z"/>
</mask>
<path d="M428.949 810V811H429.949V810H428.949ZM296.266 810H295.266V811H296.266V810ZM427.949 675V810H429.949V675H427.949ZM428.949 809H296.266V811H428.949V809ZM297.266 810V675H295.266V810H297.266Z" fill="white" mask="url(#path-48-inside-24_335_4273)"/>
<mask id="path-50-inside-25_335_4273" fill="white">
<path d="M428.949 675H561.633V810H428.949V675Z"/>
</mask>
<path d="M561.633 810V811H562.633V810H561.633ZM560.633 675V810H562.633V675H560.633ZM561.633 809H428.949V811H561.633V809Z" fill="white" mask="url(#path-50-inside-25_335_4273)"/>
<mask id="path-52-inside-26_335_4273" fill="white">
<path d="M561.633 675H694.316V810H561.633V675Z"/>
</mask>
<path d="M694.316 810V811H695.316V810H694.316ZM693.316 675V810H695.316V675H693.316ZM694.316 809H561.633V811H694.316V809Z" fill="white" mask="url(#path-52-inside-26_335_4273)"/>
<mask id="path-54-inside-27_335_4273" fill="white">
<path d="M694.317 675H827V810H694.317V675Z"/>
</mask>
<path d="M827 810V811H828V810H827ZM826 675V810H828V675H826ZM827 809H694.317V811H827V809Z" fill="white" mask="url(#path-54-inside-27_335_4273)"/>
<mask id="path-56-inside-28_335_4273" fill="white">
<path d="M296.266 810H428.949V945H296.266V810Z"/>
</mask>
<path d="M428.949 945V946H429.949V945H428.949ZM296.266 945H295.266V946H296.266V945ZM427.949 810V945H429.949V810H427.949ZM428.949 944H296.266V946H428.949V944ZM297.266 945V810H295.266V945H297.266Z" fill="white" mask="url(#path-56-inside-28_335_4273)"/>
<mask id="path-58-inside-29_335_4273" fill="white">
<path d="M428.949 810H561.633V945H428.949V810Z"/>
</mask>
<path d="M561.633 945V946H562.633V945H561.633ZM560.633 810V945H562.633V810H560.633ZM561.633 944H428.949V946H561.633V944Z" fill="white" mask="url(#path-58-inside-29_335_4273)"/>
<mask id="path-60-inside-30_335_4273" fill="white">
<path d="M561.633 810H694.316V945H561.633V810Z"/>
</mask>
<path d="M694.316 945V946H695.316V945H694.316ZM693.316 810V945H695.316V810H693.316ZM694.316 944H561.633V946H694.316V944Z" fill="white" mask="url(#path-60-inside-30_335_4273)"/>
<mask id="path-62-inside-31_335_4273" fill="white">
<path d="M694.317 810H827V945H694.317V810Z"/>
</mask>
<path d="M827 945V946H828V945H827ZM826 810V945H828V810H826ZM827 944H694.317V946H827V944Z" fill="white" mask="url(#path-62-inside-31_335_4273)"/>
<mask id="path-64-inside-32_335_4273" fill="white">
<path d="M296.266 945H428.949V1080H296.266V945Z"/>
</mask>
<path d="M428.949 1080V1081H429.949V1080H428.949ZM296.266 1080H295.266V1081H296.266V1080ZM427.949 945V1080H429.949V945H427.949ZM428.949 1079H296.266V1081H428.949V1079ZM297.266 1080V945H295.266V1080H297.266Z" fill="white" mask="url(#path-64-inside-32_335_4273)"/>
<mask id="path-66-inside-33_335_4273" fill="white">
<path d="M428.949 945H561.633V1080H428.949V945Z"/>
</mask>
<path d="M561.633 1080V1081H562.633V1080H561.633ZM560.633 945V1080H562.633V945H560.633ZM561.633 1079H428.949V1081H561.633V1079Z" fill="white" mask="url(#path-66-inside-33_335_4273)"/>
<mask id="path-68-inside-34_335_4273" fill="white">
<path d="M561.633 945H694.316V1080H561.633V945Z"/>
</mask>
<path d="M694.316 1080V1081H695.316V1080H694.316ZM693.316 945V1080H695.316V945H693.316ZM694.316 1079H561.633V1081H694.316V1079Z" fill="white" mask="url(#path-68-inside-34_335_4273)"/>
<mask id="path-70-inside-35_335_4273" fill="white">
<path d="M694.317 945H827V1080H694.317V945Z"/>
</mask>
<path d="M827 1080V1081H828V1080H827ZM826 945V1080H828V945H826ZM827 1079H694.317V1081H827V1079Z" fill="white" mask="url(#path-70-inside-35_335_4273)"/>
</g>
<rect width="787" height="1080" fill="url(#paint0_linear_335_4273)"/>
</g>
<defs>
<linearGradient id="paint0_linear_335_4273" x1="787" y1="540" x2="-6.86251e-06" y2="540" gradientUnits="userSpaceOnUse">
<stop stop-color="#121212" stop-opacity="0"/>
<stop offset="1" stop-color="#121212"/>
</linearGradient>
</defs>
</svg>
