<svg width="804" height="828" viewBox="0 0 804 828" fill="none" xmlns="http://www.w3.org/2000/svg">
<g opacity="0.2">
<path d="M0 827.389L0.436106 826.176C17.0595 779.999 20.5475 730.318 23.9181 682.272C27.2206 635.198 30.6397 586.52 46.6257 542.334C54.6104 520.258 70.2371 501.798 85.3513 483.945C106.565 458.89 126.6 435.223 127.476 402.366C128.36 369.206 108.741 340.014 89.7716 311.78C76.4659 291.986 62.7083 271.513 56.2213 249.897C40.5784 197.799 38.5884 132.309 36.832 74.5301C36.2752 56.2587 35.7502 38.9986 34.8503 22.4471L34.7978 21.5522L35.6535 21.5332C56.3665 21.0253 79.4492 18.5071 103.888 15.8411C156.597 10.0879 211.091 4.14184 254.095 16.4612C277.602 23.1964 298.178 39.1425 318.076 54.5638C343.157 74.0032 369.098 94.1052 400.706 95.1989C436.626 96.4006 468.812 72.0839 499.92 48.535C524.234 30.1305 549.375 11.0972 576.156 4.43825C641.965 -11.9247 740.076 21.4443 768.585 32.058L769.287 32.3202L769.109 33.0777C763.434 57.6298 750.717 82.4228 737.259 108.667C715.375 151.345 692.744 195.476 703.535 237.628C710.159 263.5 725.814 287.51 740.956 310.731C762.174 343.27 784.118 376.921 783.045 417.347C782.213 448.672 766.385 474.491 751.073 499.457C737.15 522.169 722.754 545.652 720.021 572.984C715.278 620.38 741.731 671.686 767.313 721.301C782.011 749.81 795.894 776.738 803.556 802.105L804 803.569L802.575 803.209C756.753 791.669 709.251 792.623 663.295 793.539C617.852 794.447 570.856 795.386 526.737 783.897C507.521 778.89 489.836 768.473 472.736 758.401C449.62 744.785 425.722 730.707 398.227 730.39C397.872 730.385 397.521 730.383 397.17 730.383C364.471 730.383 339.596 748.02 313.272 766.681C298.38 777.24 282.979 788.16 266.089 795.509C200.24 824.16 118.385 825.368 46.1656 826.434C30.543 826.665 15.7838 826.883 1.23515 827.348L0 827.389ZM36.5455 23.2428C37.4215 39.5421 37.9381 56.5187 38.4833 74.4751C40.2352 132.144 42.2252 197.505 57.7954 249.376C64.2101 270.737 77.8911 291.095 91.1237 310.784C110.25 339.246 130.027 368.679 129.131 402.412C128.239 435.9 107.065 460.911 86.5865 485.097C71.5732 502.831 56.0476 521.17 48.1675 542.948C32.2704 586.899 28.8634 635.448 25.5692 682.399C22.2188 730.151 18.7551 779.51 2.4182 825.577C16.5792 825.139 30.9546 824.925 46.1453 824.701C118.211 823.637 199.897 822.431 265.451 793.909C282.192 786.626 297.524 775.756 312.347 765.246C337.99 747.064 364.427 728.337 398.243 728.655C426.167 728.978 450.25 743.168 473.543 756.888C490.55 766.907 508.135 777.265 527.132 782.212C571.041 793.649 617.909 792.72 663.267 791.804C708.839 790.896 755.949 789.953 801.534 801.169C793.831 776.383 780.235 750.011 765.86 722.127C740.157 672.278 713.582 620.733 718.374 572.802C721.152 545.061 735.656 521.4 749.684 498.522C764.871 473.753 780.574 448.141 781.389 417.3C782.447 377.433 760.66 344.022 739.592 311.708C724.373 288.369 708.633 264.235 701.936 238.076C690.976 195.259 713.764 150.822 735.801 107.848C749.071 81.9721 761.613 57.5197 767.325 33.4292C738.054 22.5806 641.388 -10.0059 576.535 6.1266C550.078 12.7032 525.07 31.6347 500.889 49.9404C469.551 73.6626 437.094 98.1739 400.65 96.9297C368.528 95.8212 342.378 75.5542 317.091 55.9557C297.318 40.6298 276.867 24.7833 253.66 18.1327C210.954 5.90212 156.618 11.8291 104.062 17.5658C79.9217 20.198 57.1051 22.6885 36.5455 23.2428Z" fill="url(#paint0_linear_839_2)"/>
<path d="M13.677 783.473L13.6365 781.738C30.7328 781.302 48.4988 781.398 67.3064 781.499C131.008 781.831 203.304 782.227 260.296 759.855C277.518 753.096 293.366 742.935 308.694 733.109C334.554 716.532 361.294 699.391 394.336 699.344H394.469C422.465 699.344 448.833 711.392 474.338 723.045C492.145 731.181 510.561 739.594 529.288 743.765C574.908 753.928 622.273 754.861 668.079 755.765C707.378 756.539 748.017 757.339 788.002 763.873L787.743 765.587C747.871 759.07 707.293 758.27 668.047 757.498C622.164 756.592 574.719 755.657 528.941 745.462C510.052 741.253 491.56 732.804 473.676 724.634C448.329 713.053 422.118 701.079 394.469 701.079H394.336C361.759 701.124 336.403 717.378 309.558 734.588C294.161 744.457 278.244 754.662 260.878 761.48C203.603 783.962 131.19 783.583 67.2985 783.234C48.4867 783.131 30.7406 783.037 13.677 783.473Z" fill="url(#paint1_linear_839_2)"/>
<path d="M144.338 735.654C122.442 735.654 100.348 734.704 78.5131 733.765C58.4012 732.901 39.4079 732.085 20.8867 732.013L20.8949 730.277C39.4442 730.352 58.4537 731.168 78.5817 732.034C139.683 734.658 202.88 737.377 257.644 719.052C274.231 713.5 289.798 705.421 304.851 697.606C329.371 684.881 354.726 671.72 384.47 669.758C415.372 667.727 449.375 676.916 482.271 685.808C503.287 691.487 523.14 696.853 542.162 699.484C603.199 707.926 660.619 712.878 721.41 718.119C736.657 719.435 752.034 720.76 767.616 722.156L767.479 723.883C751.892 722.488 736.52 721.162 721.277 719.848C660.462 714.602 603.025 709.649 541.943 701.202C522.825 698.559 502.923 693.18 481.859 687.486C449.084 678.629 415.182 669.46 384.575 671.489C355.163 673.429 331.083 685.926 305.586 699.16C290.476 707.002 274.853 715.112 258.145 720.702C222.729 732.556 183.863 735.654 144.338 735.654Z" fill="url(#paint2_linear_839_2)"/>
<path d="M181.291 687.915C149.44 687.915 117.19 684.504 85.5488 681.157C65.7118 679.058 45.1966 676.889 25.4927 675.674L25.5894 673.944C45.3297 675.161 65.857 677.331 85.7142 679.433C141.205 685.3 198.585 691.375 252.182 678.831C267.902 675.156 282.826 670.281 297.261 665.567C322.161 657.432 345.68 649.75 373.013 647.642C450.089 641.685 522.211 651.214 591.944 660.418C640.334 666.806 690.371 673.412 742.426 675.027L742.377 676.758C690.241 675.141 640.164 668.531 591.738 662.139C522.09 652.945 450.065 643.44 373.134 649.369C345.99 651.463 322.557 659.117 297.754 667.221C283.286 671.946 268.329 676.832 252.545 680.525C229.326 685.956 205.423 687.915 181.291 687.915Z" fill="url(#paint3_linear_839_2)"/>
<path d="M213.61 646.941C173.976 646.941 134.335 638.475 95.7826 630.242C74.2297 625.64 51.9381 620.881 30.0789 617.707L30.3045 615.989C52.2167 619.171 74.5326 623.936 96.1136 628.545C142.178 638.382 189.785 648.56 236.988 644.153C258.431 642.153 280.323 638.291 301.501 634.559C320.647 631.184 340.444 627.692 359.918 625.572C385.762 622.756 412.002 616.733 437.373 610.911C467.742 603.938 499.145 596.729 530.128 594.962C566.431 592.876 598.298 602.956 629.107 612.688C658.94 622.112 689.793 631.848 725.156 630.968L725.197 632.701C689.6 633.674 658.589 623.812 628.631 614.349C597.959 604.66 566.278 594.624 530.217 596.693C499.371 598.454 468.033 605.646 437.724 612.603C412.308 618.437 386.028 624.47 360.088 627.294C340.666 629.41 320.894 632.898 301.775 636.268C280.569 640.007 258.641 643.873 237.133 645.879C229.297 646.609 221.454 646.941 213.61 646.941Z" fill="url(#paint4_linear_839_2)"/>
<path d="M254.847 615.009C244.678 615.009 234.884 614.743 225.648 614.203C184.072 611.772 148.508 598.259 110.852 583.953C88.9683 575.639 66.3374 567.042 42.3948 560.812L42.7908 559.128C66.8181 565.381 89.4929 573.995 111.417 582.324C148.952 596.585 184.407 610.054 225.737 612.472C261.778 614.59 306.393 612.493 348.154 606.751C378.927 602.519 407.5 588.996 435.136 575.919C462.09 563.161 489.965 549.97 519.668 545.575C552.944 538.455 583.321 546.519 609.912 569.571C641.993 597.409 678.498 605.244 718.406 592.851L718.875 594.514C678.405 607.085 641.388 599.135 608.855 570.908C582.675 548.21 552.778 540.256 519.951 547.283C490.429 551.65 462.664 564.791 435.815 577.497C408.073 590.627 379.387 604.203 348.372 608.469C317.212 612.756 284.457 615.009 254.847 615.009Z" fill="url(#paint5_linear_839_2)"/>
<path d="M269.274 577.588C250.786 577.588 232.943 576.751 216.924 575.07C183.616 571.575 154.704 559.753 126.745 548.32C104.777 539.338 82.0571 530.048 56.8914 524.526L57.2303 522.829C82.5292 528.381 105.313 537.696 127.346 546.706C156.485 558.619 184.008 569.874 217.086 573.344C250.224 576.82 291.178 576.683 329.456 572.965C363.991 569.611 396.153 556.361 427.257 543.549C453.415 532.77 480.47 521.625 508.902 516.35C549.658 508.793 584.75 522.45 621.901 536.911C653.159 549.075 685.482 561.649 721.733 560.631L721.781 562.362C685.103 563.405 652.727 550.755 621.328 538.536C584.391 524.158 549.513 510.579 509.193 518.055C480.918 523.301 453.944 534.414 427.862 545.161C396.649 558.02 364.379 571.315 329.609 574.692C309.732 576.621 289.131 577.588 269.274 577.588Z" fill="url(#paint6_linear_839_2)"/>
<path d="M228.199 544.7C225.301 544.7 222.438 544.649 219.621 544.541C191.682 543.481 168.926 532.023 146.921 520.941C125.308 510.061 102.96 498.808 76.155 498L76.2037 496.269C103.359 497.086 125.869 508.419 147.636 519.38C169.491 530.383 192.089 541.761 219.678 542.81C240.532 543.603 263.833 541.219 286.35 538.912C294.125 538.117 301.468 537.366 308.577 536.758C354.04 532.876 398.817 522.488 442.116 512.441C458.377 508.671 475.19 504.769 491.878 501.246C542.735 490.517 585.392 501.102 630.553 512.314C662.525 520.254 695.582 528.461 732.419 528.768L732.402 530.503C695.385 530.192 662.234 521.961 630.169 514.001C585.186 502.833 542.694 492.287 492.201 502.947C475.533 506.466 458.728 510.363 442.475 514.134C399.119 524.192 354.286 534.593 308.714 538.485C301.614 539.092 294.278 539.843 286.511 540.639C266.973 542.639 246.858 544.7 228.199 544.7Z" fill="url(#paint7_linear_839_2)"/>
<path d="M210.376 520.911C186.866 520.911 169.911 508.751 153.469 496.959C137.229 485.314 120.439 473.272 97.3564 473.084L97.373 471.349C120.956 471.543 137.959 483.738 154.402 495.528C171.885 508.066 190.015 521.026 215.85 518.958C228.829 517.92 241.472 513.413 254.858 508.639C267.074 504.284 279.706 499.781 292.595 498.177C323.998 494.275 355.97 493.091 386.892 491.946C422.691 490.621 459.709 489.252 496.145 483.66C550.877 475.265 598.265 481.582 648.427 488.273C680.896 492.604 714.471 497.084 750.673 497.35L750.665 499.085C714.361 498.816 680.734 494.33 648.218 489.993C598.177 483.315 550.901 477.013 496.387 485.373C459.858 490.981 422.792 492.352 386.948 493.679C356.062 494.821 324.123 496.004 292.789 499.9C280.073 501.48 267.526 505.954 255.391 510.281C242.498 514.877 229.164 519.631 215.979 520.685C214.07 520.837 212.201 520.911 210.376 520.911Z" fill="url(#paint8_linear_839_2)"/>
<path d="M204.035 500.126C184.646 500.126 172.091 487.219 159.892 474.675C147.369 461.8 134.415 448.484 113.888 448.166L113.912 446.431C135.101 446.761 148.294 460.323 161.05 473.437C175.647 488.448 189.474 502.615 214.175 497.251C225.24 494.845 234.242 487.462 243.777 479.648C254.608 470.763 265.81 461.577 281.316 458.41C317.769 450.955 360.225 455.782 401.275 460.45C435.718 464.36 471.327 468.401 502.693 465.031C568.425 457.953 627.759 460.067 690.568 462.307C716.033 463.215 742.361 464.155 769.521 464.466L769.505 466.201C742.321 465.888 715.984 464.948 690.512 464.04C627.767 461.8 568.486 459.688 502.863 466.753C471.315 470.153 435.621 466.093 401.098 462.172C360.164 457.523 317.838 452.716 281.631 460.111C266.517 463.2 255.476 472.255 244.795 481.013C235.106 488.956 225.955 496.461 214.514 498.948C210.804 499.754 207.316 500.126 204.035 500.126Z" fill="url(#paint9_linear_839_2)"/>
<path d="M202.044 476.173C184.775 476.173 175.825 462.997 166.443 449.188C156.815 435.015 146.857 420.36 126.802 419.998L126.834 418.263C147.72 418.642 157.922 433.659 167.792 448.183C178.808 464.402 189.207 479.715 213.739 472.621C223.88 469.688 230.666 459.798 237.855 449.328C246.829 436.259 256.998 421.448 275.919 416.669C311.173 407.757 358.577 418.187 404.416 428.263C442.435 436.621 478.318 444.501 507.642 442.21C593.03 435.477 681.328 428.511 780.598 432.442L780.534 434.173C681.356 430.256 593.107 437.212 507.764 443.936C478.242 446.28 442.213 438.344 404.077 429.96C358.416 419.917 311.205 409.539 276.307 418.354C257.979 422.982 248 437.516 239.195 450.341C231.832 461.065 224.881 471.197 214.175 474.292C209.707 475.585 205.69 476.173 202.044 476.173Z" fill="url(#paint10_linear_839_2)"/>
<path d="M203.211 443.393C186.236 443.393 176.996 430.225 167.311 416.427C157.357 402.241 147.063 387.571 127.31 386.953L127.359 385.222C147.918 385.865 158.454 400.879 168.644 415.399C180.096 431.721 190.919 447.143 215.104 439.701C225.446 436.525 231.958 425.843 238.849 414.535C247.588 400.2 257.495 383.949 277.441 378.758C312.432 369.647 360.56 382.584 407.089 395.095C444.539 405.165 479.877 414.651 508.111 413.204C538.815 411.6 568.744 408.928 597.684 406.344C658.701 400.893 716.34 395.743 780.509 399.812L780.413 401.543C716.348 397.489 658.782 402.626 597.826 408.071C568.869 410.656 538.928 413.331 508.192 414.935C479.715 416.416 444.252 406.877 406.677 396.776C360.35 384.317 312.444 371.43 277.836 380.442C258.536 385.465 248.816 401.406 240.241 415.468C233.177 427.057 226.504 438.006 215.572 441.364C211.022 442.76 206.929 443.393 203.211 443.393Z" fill="url(#paint11_linear_839_2)"/>
<path d="M210.167 402.295C193.212 402.295 179.349 391.217 164.84 379.626C150.578 368.229 135.832 356.445 117.476 355.535L117.557 353.804C136.421 354.74 151.382 366.691 165.846 378.248C183.677 392.495 200.543 405.957 223.23 398.329C234.44 394.565 241.448 385.246 248.872 375.383C258.217 362.96 267.881 350.114 287.004 345.745C321.959 337.759 368.205 353.011 412.95 367.759C447.303 379.082 479.756 389.778 506.189 390.068C550.853 390.523 596.703 383.746 641.133 377.157C683.621 370.855 727.554 364.338 770.643 364.094L770.651 365.83C727.675 366.071 683.798 372.579 641.367 378.873C596.877 385.472 550.865 392.309 506.173 391.803C479.493 391.509 446.928 380.777 412.453 369.412C367.91 354.734 321.834 339.553 287.359 347.438C268.814 351.676 259.335 364.274 250.167 376.456C242.587 386.534 235.425 396.052 223.734 399.98C218.975 401.579 214.47 402.295 210.167 402.295Z" fill="url(#paint12_linear_839_2)"/>
<path d="M524.004 375.015C517.153 375.015 510.323 374.685 503.5 373.969C477.374 371.227 448.567 358.307 418.073 344.629C379.145 327.168 338.93 309.093 304.229 313.66C285.995 316.055 275.289 325.865 264.939 335.348C256.8 342.803 248.388 350.511 236.491 354.35C210.877 362.622 182.413 350.478 154.886 338.734C135.263 330.361 114.969 321.705 96.2949 320.867L96.3677 319.136C115.329 319.986 135.755 328.7 155.512 337.13C182.764 348.757 210.949 360.779 236.007 352.693C247.564 348.965 255.476 341.717 263.849 334.043C274.389 324.388 285.288 314.402 304.027 311.941C339.104 307.32 379.589 325.484 418.722 343.034C449.1 356.659 477.79 369.528 503.662 372.243C552.859 377.397 603.089 362.353 651.649 347.797C683.754 338.171 716.957 328.218 749.369 324.311L749.555 326.034C717.28 329.923 684.145 339.857 652.101 349.462C610.102 362.052 566.863 375.012 524.004 375.015Z" fill="url(#paint13_linear_839_2)"/>
<path d="M528.63 359.674C519.846 359.674 510.945 358.752 501.91 356.697C476.365 350.888 450.993 335.12 426.457 319.87C394.708 300.139 361.88 279.736 327.409 279.593C327.316 279.59 327.223 279.59 327.13 279.59C309.09 279.59 296.043 286.85 282.229 294.534C272.597 299.891 262.638 305.433 250.907 308.199C216.908 316.212 175.769 306.667 135.981 297.441C113.488 292.223 92.2419 287.297 73.0105 285.655L73.1478 283.928C92.4883 285.579 113.791 290.517 136.341 295.748C175.954 304.936 216.92 314.434 250.543 306.506C262.056 303.791 271.919 298.307 281.453 293.004C294.908 285.52 308.908 277.805 327.417 277.857C362.336 278.006 395.361 298.531 427.301 318.381C451.724 333.559 476.974 349.255 502.257 355.004C551.798 366.27 597.572 343.004 641.848 320.509C668.002 307.219 695.049 293.476 722.92 286.656L723.299 288.344C695.606 295.12 668.644 308.821 642.57 322.069C606.077 340.614 568.563 359.674 528.63 359.674Z" fill="url(#paint14_linear_839_2)"/>
<path d="M540.24 344.948C528.477 344.948 516.079 341.711 503.073 335.225C479.594 326.457 459.563 309.488 440.195 293.079C415.219 271.926 389.395 250.048 355.881 245.713C336.403 243.182 317.708 249.492 299.655 255.588C288.118 259.486 276.189 263.514 264.127 265.22C220.234 271.424 174.307 265.882 129.894 260.527C106.533 257.708 82.3759 254.794 59.0913 253.696L59.1641 251.966C82.5094 253.066 106.694 255.984 130.083 258.804C174.396 264.154 220.214 269.674 263.909 263.502C275.822 261.817 287.678 257.812 299.147 253.94C317.369 247.782 336.201 241.419 356.083 243.991C390.065 248.39 416.079 270.423 441.232 291.731C460.496 308.05 480.414 324.922 503.706 333.625C539.174 351.307 570.012 344.394 595.444 313.1C625.462 275.125 660.251 254.835 704.928 249.261L705.121 250.984C660.893 256.5 626.447 276.593 596.712 314.215C580.075 334.686 561.171 344.946 540.24 344.948Z" fill="url(#paint15_linear_839_2)"/>
<path d="M544.192 316.81C532.99 316.81 521.085 312.801 508.523 304.774C486.554 295.018 470.512 278.392 455.002 262.315C435.056 241.646 416.22 222.124 385.427 215.201C363.563 210.287 338.397 216.058 314.063 221.642C299.49 224.985 285.724 228.142 272.617 229.169C221.163 233.208 168.192 228.953 116.964 224.839C94.8743 223.066 72.0375 221.233 49.7864 220.112L49.8674 218.381C72.1387 219.503 94.9913 221.337 117.089 223.11C168.26 227.219 221.171 231.473 272.496 227.442C285.486 226.422 299.196 223.278 313.708 219.949C338.22 214.329 363.555 208.51 385.774 213.508C417.039 220.535 436.929 241.147 456.161 261.082C471.565 277.045 487.491 293.551 509.278 303.236C541.015 323.499 568.353 317.547 590.66 285.597C615.083 246.471 652.461 223.03 698.735 217.844L698.913 219.566C653.147 224.695 616.185 247.872 592.017 286.584C577.956 306.723 561.954 316.81 544.192 316.81Z" fill="url(#paint16_linear_839_2)"/>
<path d="M545.54 264.677C537.192 264.677 528.687 263.337 519.979 260.307C499.25 253.092 481.685 240.734 464.698 228.786C445.027 214.945 424.685 200.632 399.362 194.324C375.044 188.267 345.7 189.672 317.301 191.024C302.526 191.733 288.575 192.401 275.426 192.056C224.263 190.732 170.779 188.319 119.059 185.985C94.5067 184.879 69.1191 183.732 44.6274 182.735L44.6919 181.004C69.1876 182.001 94.5754 183.146 119.127 184.255C170.844 186.586 224.32 189.001 275.467 190.325C288.554 190.666 302.481 190 317.228 189.293C345.728 187.932 375.201 186.523 399.741 192.636C425.359 199.018 445.826 213.419 465.623 227.345C482.513 239.23 499.984 251.522 520.504 258.661C562.527 273.281 598.581 248.716 636.749 222.7C657.983 208.226 679.939 193.26 702.99 185.725L703.483 187.38C680.65 194.843 658.79 209.744 637.653 224.153C608.33 244.143 578.203 264.675 545.54 264.677Z" fill="url(#paint17_linear_839_2)"/>
<path d="M546.602 206.834C519.426 206.834 489.331 197.687 460.213 188.837C440.396 182.816 421.678 177.128 403.79 174.085C293.294 155.293 177.694 145.305 39.9929 142.652L40.0252 140.917C177.803 143.572 293.475 153.568 404.057 172.375C422.041 175.433 440.808 181.135 460.674 187.172C489.678 195.987 519.664 205.099 546.602 205.099C546.836 205.099 547.074 205.099 547.308 205.097C584.362 204.875 613.4 190.397 644.145 175.071C666.553 163.898 689.724 152.347 716.739 146.353L717.078 148.05C690.261 154 667.179 165.507 644.855 176.635C613.941 192.047 584.738 206.605 547.316 206.832C547.078 206.832 546.84 206.834 546.602 206.834Z" fill="url(#paint18_linear_839_2)"/>
<path d="M448.252 152.204C433.913 152.204 419.405 151.448 404.683 149.737C376.481 146.459 350.984 135.426 326.327 124.755C306.635 116.234 286.273 107.421 264.563 102.546C216.19 91.6847 160.974 94.9388 107.57 98.0897C83.3569 99.518 60.4882 100.868 38.4633 100.942L38.4551 99.2069C60.4399 99.1349 83.2883 97.7872 107.477 96.3589C160.99 93.204 216.319 89.9327 264.911 100.853C286.766 105.76 307.196 114.601 326.957 123.151C351.509 133.778 376.897 144.764 404.868 148.014C477.031 156.406 544.422 141.738 609.597 127.553C650.672 118.615 693.144 109.372 736.996 105.711L737.125 107.438C693.378 111.09 650.955 120.322 609.932 129.252C557.905 140.574 504.461 152.204 448.252 152.204Z" fill="url(#paint19_linear_839_2)"/>
<path d="M411.121 126.446C408.138 126.446 405.166 126.323 402.203 126.065C371.148 123.365 344.872 106.179 319.456 89.5578C298.864 76.0918 277.574 62.1664 253.817 55.969C209.694 44.4622 155.948 49.3903 103.969 54.1555C80.2766 56.3266 57.9002 58.3789 37.2034 58.7958L37.1711 57.0607C57.8113 56.6459 80.1636 54.5979 103.824 52.429C155.935 47.653 209.831 42.7058 254.213 54.2889C278.228 60.55 299.631 74.5495 320.332 88.0875C345.579 104.598 371.685 121.672 402.341 124.338C437.425 127.406 474.068 111.247 509.503 95.633C533.514 85.0531 558.349 74.1114 581.9 69.7037C647.248 57.4732 706.284 55.7381 757.346 64.5512L757.079 66.2612C706.183 57.4819 647.35 59.2149 582.191 71.4094C558.821 75.7828 534.075 86.6864 510.141 97.2308C477.499 111.615 443.832 126.446 411.121 126.446Z" fill="url(#paint20_linear_839_2)"/>
<path d="M761.597 796.062C754.488 773.581 741.776 748.393 728.321 721.725C703.995 673.514 678.837 623.662 681.3 580.263C682.971 550.736 698.485 525.305 713.49 500.713C729.472 474.515 745.998 447.424 745.639 415.445C745.223 378.028 723.303 347.843 702.106 318.651C685.51 295.798 668.354 272.167 661.935 245.406C651.936 203.696 679.677 153.448 706.506 104.854C722.54 75.8104 737.687 48.3765 743.948 24.2417L745.546 24.6985C739.225 49.0495 724.026 76.5783 707.935 105.722C681.276 154.017 653.704 203.956 663.542 244.983C669.872 271.401 686.927 294.889 703.422 317.602C724.785 347.016 746.87 377.433 747.294 415.423C747.658 447.921 730.993 475.234 714.883 501.646C699.99 526.052 684.598 551.289 682.947 580.365C680.517 623.281 705.561 672.913 729.783 720.915C743.274 747.648 756.014 772.898 763.163 795.516L761.597 796.062Z" fill="url(#paint21_linear_839_2)"/>
<path d="M709.21 792.367C703.983 768.101 692.89 739.812 681.142 709.861C661.959 660.95 642.122 610.376 644.867 570.068C646.752 542.363 660.639 518.129 674.065 494.692C688.784 469.007 703.999 442.449 702.788 411.736C701.549 380.246 683.092 356.216 665.245 332.978C649.873 312.966 633.98 292.269 629.62 267.14C621.796 222.003 647.16 167.21 671.688 114.22C688.187 78.5843 703.765 44.9253 709.38 14.8614L711.003 15.1959C705.347 45.4778 689.721 79.236 673.178 114.977C648.762 167.716 623.52 222.251 631.251 266.831C635.53 291.524 650.588 311.133 666.533 331.893C684.549 355.348 703.175 379.604 704.443 411.664C705.674 442.895 690.326 469.681 675.483 495.583C662.153 518.847 648.371 542.899 646.514 570.191C643.802 610.092 663.562 660.476 682.672 709.202C694.444 739.222 705.565 767.576 710.825 791.986L709.21 792.367Z" fill="url(#paint22_linear_839_2)"/>
<path d="M651.322 792.97C648.605 758.609 639.643 720.364 630.98 683.379C620.436 638.36 609.533 591.806 609.464 551.02C609.423 524.753 621.817 502.547 633.802 481.076C646.207 458.844 659.041 435.856 657.514 408.705C656.045 382.651 642.304 363.758 629.014 345.489C618.034 330.393 606.679 314.783 601.996 295.075C601.095 253.563 611.523 214.5 632.963 178.78C659.949 126.131 673.513 66.6862 672.16 6.92464L673.815 6.88217C675.172 66.9445 661.539 126.687 634.387 179.652C613.097 215.131 602.759 253.871 603.627 294.846C608.2 314.017 619.451 329.481 630.326 344.437C643.769 362.913 657.664 382.021 659.162 408.604C660.72 436.279 647.762 459.497 635.227 481.95C623.355 503.224 611.078 525.22 611.119 551.016C611.183 591.594 622.063 638.044 632.587 682.966C641.266 720.017 650.24 758.33 652.969 792.826L651.322 792.97Z" fill="url(#paint23_linear_839_2)"/>
<path d="M599.234 792.923L597.579 792.872C598.79 748.03 592.505 700.778 586.426 655.082C580.927 613.771 575.248 571.056 575.494 531.65C575.639 508.594 585.651 489.588 595.335 471.211C605.798 451.346 615.685 432.584 614.49 408.889C613.428 387.755 604.377 373.77 594.798 358.967C587.483 347.661 579.922 335.972 576.01 320.701L575.982 320.466C576.483 277.002 585.978 234.864 604.2 195.221C629.592 133.068 640.152 63.9009 633.927 0.49135L635.574 0.313675C641.827 64.011 631.218 133.485 605.702 195.939C587.588 235.351 578.15 277.201 577.637 320.367C581.485 335.299 588.948 346.836 596.166 357.993C605.879 373.004 615.055 387.181 616.145 408.796C617.36 432.988 606.896 452.844 596.78 472.049C587.201 490.238 577.29 509.045 577.149 531.663C576.899 570.941 582.32 611.695 588.061 654.843C594.152 700.609 600.446 747.935 599.234 792.923Z" fill="url(#paint24_linear_839_2)"/>
<path d="M555.483 788.101L553.836 787.944C557.316 747.338 561.223 699.299 563.795 650.892C565.595 612.654 560.848 575.095 549.674 539.265C543.619 519.842 545.54 498.025 554.95 479.406C556.92 475.506 559.035 471.621 561.082 467.866C569.681 452.082 578.574 435.762 578.404 414.805C578.259 396.123 571.11 384.183 563.54 371.542C557.324 361.157 550.893 350.418 548.616 335.606C550.473 290.95 559.673 247.363 575.95 205.875C599.037 140.599 605.686 72.2317 595.694 2.69836L597.333 2.44008C607.361 72.2655 600.688 140.923 577.488 206.506C561.276 247.835 552.116 291.228 550.259 335.506C552.472 349.794 558.813 360.382 564.941 370.622C572.301 382.911 579.906 395.617 580.059 414.792C580.229 436.217 571.227 452.743 562.519 468.725C560.481 472.47 558.369 476.342 556.411 480.219C547.211 498.423 545.326 519.75 551.248 538.728C562.479 574.759 567.259 612.527 565.446 650.983C562.87 699.422 558.967 747.478 555.483 788.101Z" fill="url(#paint25_linear_839_2)"/>
<path d="M524.48 782.134L522.833 781.994C523.358 775.231 523.891 768.517 524.42 761.837C527.447 723.57 530.309 687.427 531.641 649.153C532.885 619.127 525.287 587.277 517.94 556.475C514.977 544.06 512.18 532.334 509.959 520.81C509.54 518.612 509.289 516.631 509.197 514.752C508.248 495.615 513.492 482.633 519.047 468.89C523.871 456.962 528.856 444.626 529.764 427.529C530.664 410.557 526.858 394.46 523.176 378.891C519.567 363.637 515.841 347.864 516.422 331.084C522.857 287.849 532.982 245.011 546.517 203.662C566.649 140.528 572.381 75.0653 563.549 9.10373L565.188 8.86278C574.053 75.0931 568.3 140.819 548.084 204.219C534.576 245.478 524.476 288.215 518.066 331.25C517.5 347.684 521.202 363.336 524.779 378.474C528.493 394.166 532.328 410.394 531.411 427.626C530.491 445.024 525.445 457.502 520.568 469.567C515.09 483.12 509.919 495.922 510.852 514.663C510.937 516.455 511.175 518.356 511.582 520.467C513.795 531.951 516.588 543.658 519.543 556.054C526.922 586.977 534.548 618.952 533.296 649.223C531.96 687.531 529.098 723.693 526.067 761.979C525.538 768.661 525.005 775.374 524.48 782.134Z" fill="url(#paint26_linear_839_2)"/>
<path d="M497.437 772.026L495.782 771.979C497.256 713.212 489.045 657.646 481.1 603.911C472.695 547.033 464 488.22 467.403 427.224C470.871 364.982 484.224 305.392 497.139 247.761C512.793 177.902 528.981 105.666 527.479 28.5875L529.134 28.5537C530.64 105.848 514.428 178.194 498.749 248.157C485.847 305.716 472.51 365.234 469.05 427.326C465.663 488.137 474.342 546.857 482.735 603.644C490.688 657.458 498.914 713.1 497.437 772.026Z" fill="url(#paint27_linear_839_2)"/>
<path d="M468.222 755.602C464.323 672.117 447.848 614.683 418.819 537.905C405.36 502.327 399.152 457.667 402.208 418.441C405.538 375.637 418.335 341.533 436.517 303.494C480.143 212.219 493.969 149.96 491.309 56.7642L492.964 56.7131C495.632 150.236 481.762 212.703 437.994 304.271C419.897 342.13 407.165 376.056 403.855 418.581C400.819 457.555 406.987 501.923 420.353 537.266C449.451 614.218 465.962 671.792 469.877 755.517L468.222 755.602Z" fill="url(#paint28_linear_839_2)"/>
<path d="M441.713 741.016C435.015 691.261 413.382 643.383 392.459 597.083C365.049 536.428 336.71 473.71 341.744 406.158C345.227 359.377 371.875 314.823 397.484 277.411C446.815 205.325 456.411 170.957 451.526 83.8742L453.173 83.7728C458.09 171.362 448.438 205.924 398.825 278.422C373.352 315.64 346.846 359.938 343.391 406.293C338.393 473.387 366.639 535.893 393.952 596.34C414.928 642.758 436.618 690.757 443.351 740.775L441.713 741.016Z" fill="url(#paint29_linear_839_2)"/>
<path d="M411.238 731.334C401.284 684.6 378.108 640.837 355.699 598.515C323.279 537.3 289.757 473.998 295.764 400.677C300.41 344.02 327.07 308.444 357.94 267.248C362.546 261.098 367.313 254.74 372.069 248.217C413.882 190.886 421.581 173.021 415.873 96.8917L417.52 96.7565C423.276 173.493 415.517 191.498 373.385 249.27C368.617 255.802 363.85 262.165 359.24 268.318C328.536 309.296 302.013 344.684 297.411 400.825C291.449 473.619 324.846 536.684 357.145 597.675C379.614 640.105 402.846 683.978 412.853 730.957L411.238 731.334Z" fill="url(#paint30_linear_839_2)"/>
<path d="M383.856 730.805C373.388 684.917 349.676 641.665 326.747 599.838C293.1 538.461 258.306 474.995 264.059 401.432C268.446 345.325 294.945 309.73 325.625 268.513C331.054 261.217 336.673 253.673 342.236 245.897C383.416 188.363 388.971 168.497 384.704 94.0501L386.351 93.9443C390.61 168.139 384.611 189.587 343.56 246.938C337.986 254.727 332.366 262.277 326.929 269.579C296.41 310.576 270.057 345.983 265.705 401.574C259.998 474.599 294.658 537.827 328.18 598.972C351.17 640.909 374.939 684.272 385.463 730.402L383.856 730.805Z" fill="url(#paint31_linear_839_2)"/>
<path d="M358.541 737.861C347.94 694.574 326.323 652.676 305.416 612.157C273.25 549.82 239.991 485.363 244.879 413.147C248.343 361.955 271.825 324.722 296.692 285.306C303.809 274.019 311.173 262.347 318.124 250.216C353.087 189.218 357.584 158.224 354.896 83.3134L356.551 83.2501C359.252 158.558 354.722 189.726 319.545 251.109C312.573 263.272 305.202 274.958 298.069 286.262C273.331 325.483 249.962 362.53 246.527 413.27C241.674 484.982 274.817 549.215 306.869 611.332C327.825 651.944 349.491 693.938 360.14 737.43L358.541 737.861Z" fill="url(#paint32_linear_839_2)"/>
<path d="M334.772 750.862C324.922 710.762 305.473 670.15 286.661 630.873C256.029 566.909 224.348 500.766 229.273 430.354C232.91 378.295 261.705 322.672 284.836 277.978C286.483 274.802 288.102 271.67 289.693 268.585C326.545 197.052 327.106 146.093 324.926 62.1794L326.581 62.1326C328.769 146.341 328.2 197.488 291.146 269.41C289.559 272.495 287.937 275.627 286.289 278.805C263.231 323.353 234.533 378.794 230.92 430.481C226.031 500.416 257.607 566.342 288.138 630.096C306.99 669.454 326.48 710.151 336.371 750.431L334.772 750.862Z" fill="url(#paint33_linear_839_2)"/>
<path d="M311.903 766.507C302.356 726.553 286.209 687.881 270.598 650.481C244.129 587.076 216.759 521.514 221.042 448.172C223.868 399.657 241.315 354.69 258.185 311.202C264.608 294.641 271.252 277.514 277.005 260.417C298.473 196.584 296.838 133.779 295.102 67.2847C294.864 58.0525 294.622 48.7675 294.44 39.4213L296.095 39.3875C296.273 48.7276 296.515 58.0083 296.757 67.2383C298.493 133.896 300.136 196.859 278.563 260.992C272.799 278.13 266.15 295.275 259.715 311.856C242.898 355.213 225.502 400.046 222.689 448.278C218.434 521.201 245.723 586.57 272.112 649.787C287.751 687.251 303.927 725.99 313.51 766.084L311.903 766.507Z" fill="url(#paint34_linear_839_2)"/>
<path d="M285.619 784.427C276.976 745.293 263.662 708.015 250.789 671.967C226.37 603.587 203.307 538.999 208.826 461.967C211.894 419.108 224.093 378.055 235.893 338.355C244.221 310.322 252.835 281.336 258.176 251.928C268.515 194.995 266.787 134.08 265.115 75.1709C264.607 57.2951 264.082 38.8143 263.929 21.0169L265.584 21C265.737 38.7805 266.262 57.253 266.766 75.118C268.442 134.123 270.173 195.135 259.799 252.253C254.442 281.757 245.815 310.792 237.471 338.871C225.699 378.478 213.528 419.435 210.472 462.098C204.982 538.749 227.985 603.162 252.339 671.358C265.228 707.461 278.562 744.791 287.233 784.038L285.619 784.427Z" fill="url(#paint35_linear_839_2)"/>
<path d="M254.156 799.427C246.43 760.176 235.55 723.447 225.031 687.928C203.074 613.782 182.329 543.749 191.092 458.526C194.762 422.886 202.965 387.685 210.901 353.643C218.612 320.559 226.585 286.348 230.355 251.858C236.806 192.775 236.661 130.176 236.515 69.6377C236.475 51.6263 236.431 33.0016 236.568 15.0218L238.223 15.0348C238.082 33.0055 238.126 51.6263 238.17 69.6334C238.312 130.22 238.461 192.87 231.994 252.057C228.215 286.655 220.231 320.919 212.508 354.053C204.584 388.042 196.393 423.187 192.74 458.712C184.012 543.578 204.705 613.443 226.613 687.414C237.145 722.973 248.032 759.742 255.779 799.076L254.156 799.427Z" fill="url(#paint36_linear_839_2)"/>
<path d="M211.253 811.952C207.345 774.493 197.136 737.51 187.262 701.745C176.334 662.151 165.03 621.211 162.298 579.596C160.105 546.291 164.865 512.244 169.471 479.318C171.054 468.027 172.685 456.351 173.992 444.984C189.167 312.933 196.623 170.877 196.78 10.6949H198.436C198.274 170.949 190.814 313.073 175.631 445.191C174.323 456.579 172.689 468.268 171.11 479.569C166.516 512.405 161.765 546.358 163.945 579.478C166.67 620.906 177.945 661.758 188.852 701.263C198.742 737.099 208.972 774.154 212.9 811.762L211.253 811.952Z" fill="url(#paint37_linear_839_2)"/>
<path d="M157.615 821.102L155.96 821.03C157.619 779.842 151.172 737.897 144.935 697.332C138.29 654.107 131.42 609.41 134.435 565.779C136.207 540.142 143.635 516.568 150.817 493.772C157.195 473.53 163.791 452.599 166.419 430.261C176.281 346.451 169.301 251.614 162.556 159.899C158.745 108.079 155.144 59.1323 154.41 12.3349L156.065 12.3054C156.796 59.0517 160.392 107.973 164.203 159.766C170.957 251.566 177.94 346.491 168.058 430.472C165.41 452.98 158.79 473.994 152.387 494.316C145.234 517.012 137.838 540.48 136.082 565.906C133.083 609.332 139.937 653.929 146.57 697.057C152.815 737.705 159.278 779.739 157.615 821.102Z" fill="url(#paint38_linear_839_2)"/>
<path d="M97.143 824.488L95.52 824.145C104.11 779.368 102.637 733.46 101.212 689.065C99.8637 647.09 98.4669 603.685 105.66 561.64C109.931 536.684 121.324 514.579 132.344 493.201C145.258 468.137 157.462 444.465 159.282 416.496C161.426 383.599 150.845 349.873 140.612 317.254C134.068 296.387 127.298 274.806 124.089 253.94C115.204 196.15 113.811 133.02 112.467 71.9678C112.039 52.6147 111.639 34.3371 111.005 16.1437L112.66 16.0804C113.29 34.2864 113.694 52.5705 114.118 71.9275C115.462 132.921 116.855 195.992 125.72 253.665C128.909 274.395 135.659 295.908 142.182 316.713C152.464 349.487 163.097 383.379 160.929 416.615C159.084 444.959 146.231 469.902 133.798 494.026C122.842 515.283 111.514 537.264 107.292 561.945C100.126 603.809 101.519 647.121 102.863 689.005C104.292 733.5 105.77 779.51 97.143 824.488Z" fill="url(#paint39_linear_839_2)"/>
<path d="M42.8553 825.751L41.2808 825.226C55.1515 779.301 57.2911 731.037 59.3579 684.363C61.3682 638.956 63.4512 592.002 76.47 547.975C83.232 525.122 97.6028 505.308 111.502 486.144C129.886 460.801 147.248 436.863 148.54 406.519C149.929 373.99 133.123 342.906 116.867 312.847C105.947 292.656 94.6559 271.778 89.2304 250.891C74.8231 195.412 72.6554 131.791 70.5559 70.2664C69.9789 53.3175 69.4339 37.3099 68.6345 21.5753L70.2896 21.4825C71.0849 37.2315 71.6298 53.2473 72.211 70.2049C74.3022 131.632 76.47 195.15 90.829 250.434C96.1983 271.111 107.437 291.895 118.304 311.992C134.678 342.265 151.604 373.569 150.195 406.596C148.875 437.481 130.548 462.754 112.818 487.194C99.008 506.237 84.7213 525.928 78.0523 548.487C65.0902 592.303 63.0151 639.144 61.009 684.443C58.938 731.23 56.7942 779.61 42.8553 825.751Z" fill="url(#paint40_linear_839_2)"/>
</g>
<defs>
<linearGradient id="paint0_linear_839_2" x1="305.5" y1="56" x2="402" y2="827.389" gradientUnits="userSpaceOnUse">
<stop stop-color="white"/>
<stop offset="0.314403" stop-color="white" stop-opacity="0.11"/>
<stop offset="0.637164" stop-color="white" stop-opacity="0.24"/>
<stop offset="1" stop-color="white" stop-opacity="0.53"/>
</linearGradient>
<linearGradient id="paint1_linear_839_2" x1="307.876" y1="705.038" x2="308.928" y2="784.687" gradientUnits="userSpaceOnUse">
<stop stop-color="white"/>
<stop offset="0.314403" stop-color="white" stop-opacity="0.11"/>
<stop offset="0.637164" stop-color="white" stop-opacity="0.24"/>
<stop offset="1" stop-color="white" stop-opacity="0.53"/>
</linearGradient>
<linearGradient id="paint2_linear_839_2" x1="304.625" y1="673.953" x2="305.3" y2="736.612" gradientUnits="userSpaceOnUse">
<stop stop-color="white"/>
<stop offset="0.314403" stop-color="white" stop-opacity="0.11"/>
<stop offset="0.637164" stop-color="white" stop-opacity="0.24"/>
<stop offset="1" stop-color="white" stop-opacity="0.53"/>
</linearGradient>
<linearGradient id="paint3_linear_839_2" x1="297.909" y1="648.641" x2="298.194" y2="688.528" gradientUnits="userSpaceOnUse">
<stop stop-color="white"/>
<stop offset="0.314403" stop-color="white" stop-opacity="0.11"/>
<stop offset="0.637164" stop-color="white" stop-opacity="0.24"/>
<stop offset="1" stop-color="white" stop-opacity="0.53"/>
</linearGradient>
<linearGradient id="paint4_linear_839_2" x1="294.206" y1="598.222" x2="294.658" y2="647.7" gradientUnits="userSpaceOnUse">
<stop stop-color="white"/>
<stop offset="0.314403" stop-color="white" stop-opacity="0.11"/>
<stop offset="0.637164" stop-color="white" stop-opacity="0.24"/>
<stop offset="1" stop-color="white" stop-opacity="0.53"/>
</linearGradient>
<linearGradient id="paint5_linear_839_2" x1="299.44" y1="547.938" x2="300.321" y2="616.048" gradientUnits="userSpaceOnUse">
<stop stop-color="white"/>
<stop offset="0.314403" stop-color="white" stop-opacity="0.11"/>
<stop offset="0.637164" stop-color="white" stop-opacity="0.24"/>
<stop offset="1" stop-color="white" stop-opacity="0.53"/>
</linearGradient>
<linearGradient id="paint6_linear_839_2" x1="309.533" y1="518.488" x2="310.229" y2="578.505" gradientUnits="userSpaceOnUse">
<stop stop-color="white"/>
<stop offset="0.314403" stop-color="white" stop-opacity="0.11"/>
<stop offset="0.637164" stop-color="white" stop-opacity="0.24"/>
<stop offset="1" stop-color="white" stop-opacity="0.53"/>
</linearGradient>
<linearGradient id="paint7_linear_839_2" x1="325.519" y1="499.547" x2="325.93" y2="545.403" gradientUnits="userSpaceOnUse">
<stop stop-color="white"/>
<stop offset="0.314403" stop-color="white" stop-opacity="0.11"/>
<stop offset="0.637164" stop-color="white" stop-opacity="0.24"/>
<stop offset="1" stop-color="white" stop-opacity="0.53"/>
</linearGradient>
<linearGradient id="paint8_linear_839_2" x1="345.601" y1="474.703" x2="346.033" y2="521.631" gradientUnits="userSpaceOnUse">
<stop stop-color="white"/>
<stop offset="0.314403" stop-color="white" stop-opacity="0.11"/>
<stop offset="0.637164" stop-color="white" stop-opacity="0.24"/>
<stop offset="1" stop-color="white" stop-opacity="0.53"/>
</linearGradient>
<linearGradient id="paint9_linear_839_2" x1="363.012" y1="450.065" x2="363.518" y2="500.905" gradientUnits="userSpaceOnUse">
<stop stop-color="white"/>
<stop offset="0.314403" stop-color="white" stop-opacity="0.11"/>
<stop offset="0.637164" stop-color="white" stop-opacity="0.24"/>
<stop offset="1" stop-color="white" stop-opacity="0.53"/>
</linearGradient>
<linearGradient id="paint10_linear_839_2" x1="375.228" y1="417.548" x2="375.924" y2="477.082" gradientUnits="userSpaceOnUse">
<stop stop-color="white"/>
<stop offset="0.314403" stop-color="white" stop-opacity="0.11"/>
<stop offset="0.637164" stop-color="white" stop-opacity="0.24"/>
<stop offset="1" stop-color="white" stop-opacity="0.53"/>
</linearGradient>
<linearGradient id="paint11_linear_839_2" x1="375.51" y1="380.278" x2="376.317" y2="444.37" gradientUnits="userSpaceOnUse">
<stop stop-color="white"/>
<stop offset="0.314403" stop-color="white" stop-opacity="0.11"/>
<stop offset="0.637164" stop-color="white" stop-opacity="0.24"/>
<stop offset="1" stop-color="white" stop-opacity="0.53"/>
</linearGradient>
<linearGradient id="paint12_linear_839_2" x1="365.666" y1="347.523" x2="366.275" y2="403.145" gradientUnits="userSpaceOnUse">
<stop stop-color="white"/>
<stop offset="0.314403" stop-color="white" stop-opacity="0.11"/>
<stop offset="0.637164" stop-color="white" stop-opacity="0.24"/>
<stop offset="1" stop-color="white" stop-opacity="0.53"/>
</linearGradient>
<linearGradient id="paint13_linear_839_2" x1="344.517" y1="315.53" x2="345.235" y2="375.937" gradientUnits="userSpaceOnUse">
<stop stop-color="white"/>
<stop offset="0.314403" stop-color="white" stop-opacity="0.11"/>
<stop offset="0.637164" stop-color="white" stop-opacity="0.24"/>
<stop offset="1" stop-color="white" stop-opacity="0.53"/>
</linearGradient>
<linearGradient id="paint14_linear_839_2" x1="320.104" y1="283.395" x2="321.289" y2="360.85" gradientUnits="userSpaceOnUse">
<stop stop-color="white"/>
<stop offset="0.314403" stop-color="white" stop-opacity="0.11"/>
<stop offset="0.637164" stop-color="white" stop-opacity="0.24"/>
<stop offset="1" stop-color="white" stop-opacity="0.53"/>
</linearGradient>
<linearGradient id="paint15_linear_839_2" x1="304.567" y1="250.278" x2="306.403" y2="346.395" gradientUnits="userSpaceOnUse">
<stop stop-color="white"/>
<stop offset="0.314403" stop-color="white" stop-opacity="0.11"/>
<stop offset="0.637164" stop-color="white" stop-opacity="0.24"/>
<stop offset="1" stop-color="white" stop-opacity="0.53"/>
</linearGradient>
<linearGradient id="paint16_linear_839_2" x1="296.438" y1="218.729" x2="298.4" y2="318.307" gradientUnits="userSpaceOnUse">
<stop stop-color="white"/>
<stop offset="0.314403" stop-color="white" stop-opacity="0.11"/>
<stop offset="0.637164" stop-color="white" stop-opacity="0.24"/>
<stop offset="1" stop-color="white" stop-opacity="0.53"/>
</linearGradient>
<linearGradient id="paint17_linear_839_2" x1="294.976" y1="186.668" x2="296.199" y2="265.879" gradientUnits="userSpaceOnUse">
<stop stop-color="white"/>
<stop offset="0.314403" stop-color="white" stop-opacity="0.11"/>
<stop offset="0.637164" stop-color="white" stop-opacity="0.24"/>
<stop offset="1" stop-color="white" stop-opacity="0.53"/>
</linearGradient>
<linearGradient id="paint18_linear_839_2" x1="297.268" y1="145.378" x2="298.007" y2="207.787" gradientUnits="userSpaceOnUse">
<stop stop-color="white"/>
<stop offset="0.314403" stop-color="white" stop-opacity="0.11"/>
<stop offset="0.637164" stop-color="white" stop-opacity="0.24"/>
<stop offset="1" stop-color="white" stop-opacity="0.53"/>
</linearGradient>
<linearGradient id="paint19_linear_839_2" x1="303.932" y1="97.3032" x2="304.504" y2="153.057" gradientUnits="userSpaceOnUse">
<stop stop-color="white"/>
<stop offset="0.314403" stop-color="white" stop-opacity="0.11"/>
<stop offset="0.637164" stop-color="white" stop-opacity="0.24"/>
<stop offset="1" stop-color="white" stop-opacity="0.53"/>
</linearGradient>
<linearGradient id="paint20_linear_839_2" x1="310.819" y1="52.5369" x2="311.824" y2="127.589" gradientUnits="userSpaceOnUse">
<stop stop-color="white"/>
<stop offset="0.314403" stop-color="white" stop-opacity="0.11"/>
<stop offset="0.637164" stop-color="white" stop-opacity="0.24"/>
<stop offset="1" stop-color="white" stop-opacity="0.53"/>
</linearGradient>
<linearGradient id="paint21_linear_839_2" x1="699.105" y1="76.4807" x2="1062.84" y2="477.006" gradientUnits="userSpaceOnUse">
<stop stop-color="white"/>
<stop offset="0.314403" stop-color="white" stop-opacity="0.11"/>
<stop offset="0.637164" stop-color="white" stop-opacity="0.24"/>
<stop offset="1" stop-color="white" stop-opacity="0.53"/>
</linearGradient>
<linearGradient id="paint22_linear_839_2" x1="659.648" y1="67.4851" x2="1024.58" y2="387.286" gradientUnits="userSpaceOnUse">
<stop stop-color="white"/>
<stop offset="0.314403" stop-color="white" stop-opacity="0.11"/>
<stop offset="0.637164" stop-color="white" stop-opacity="0.24"/>
<stop offset="1" stop-color="white" stop-opacity="0.53"/>
</linearGradient>
<linearGradient id="paint23_linear_839_2" x1="629.287" y1="60.0868" x2="986.986" y2="329.47" gradientUnits="userSpaceOnUse">
<stop stop-color="white"/>
<stop offset="0.314403" stop-color="white" stop-opacity="0.11"/>
<stop offset="0.637164" stop-color="white" stop-opacity="0.24"/>
<stop offset="1" stop-color="white" stop-opacity="0.53"/>
</linearGradient>
<linearGradient id="paint24_linear_839_2" x1="598.984" y1="53.9597" x2="940.149" y2="272.925" gradientUnits="userSpaceOnUse">
<stop stop-color="white"/>
<stop offset="0.314403" stop-color="white" stop-opacity="0.11"/>
<stop offset="0.637164" stop-color="white" stop-opacity="0.24"/>
<stop offset="1" stop-color="white" stop-opacity="0.53"/>
</linearGradient>
<linearGradient id="paint25_linear_839_2" x1="567.346" y1="55.6158" x2="890.97" y2="244.199" gradientUnits="userSpaceOnUse">
<stop stop-color="white"/>
<stop offset="0.314403" stop-color="white" stop-opacity="0.11"/>
<stop offset="0.637164" stop-color="white" stop-opacity="0.24"/>
<stop offset="1" stop-color="white" stop-opacity="0.53"/>
</linearGradient>
<linearGradient id="paint26_linear_839_2" x1="531.936" y1="61.2" x2="864.335" y2="273.859" gradientUnits="userSpaceOnUse">
<stop stop-color="white"/>
<stop offset="0.314403" stop-color="white" stop-opacity="0.11"/>
<stop offset="0.637164" stop-color="white" stop-opacity="0.24"/>
<stop offset="1" stop-color="white" stop-opacity="0.53"/>
</linearGradient>
<linearGradient id="paint27_linear_839_2" x1="490.427" y1="78.874" x2="819.929" y2="307.048" gradientUnits="userSpaceOnUse">
<stop stop-color="white"/>
<stop offset="0.314403" stop-color="white" stop-opacity="0.11"/>
<stop offset="0.637164" stop-color="white" stop-opacity="0.24"/>
<stop offset="1" stop-color="white" stop-opacity="0.53"/>
</linearGradient>
<linearGradient id="paint28_linear_839_2" x1="436.339" y1="104.016" x2="766.23" y2="460.618" gradientUnits="userSpaceOnUse">
<stop stop-color="white"/>
<stop offset="0.314403" stop-color="white" stop-opacity="0.11"/>
<stop offset="0.637164" stop-color="white" stop-opacity="0.24"/>
<stop offset="1" stop-color="white" stop-opacity="0.53"/>
</linearGradient>
<linearGradient id="paint29_linear_839_2" x1="384.156" y1="128.257" x2="677.389" y2="543.565" gradientUnits="userSpaceOnUse">
<stop stop-color="white"/>
<stop offset="0.314403" stop-color="white" stop-opacity="0.11"/>
<stop offset="0.637164" stop-color="white" stop-opacity="0.24"/>
<stop offset="1" stop-color="white" stop-opacity="0.53"/>
</linearGradient>
<linearGradient id="paint30_linear_839_2" x1="342.228" y1="139.707" x2="611.609" y2="573.191" gradientUnits="userSpaceOnUse">
<stop stop-color="white"/>
<stop offset="0.314403" stop-color="white" stop-opacity="0.11"/>
<stop offset="0.637164" stop-color="white" stop-opacity="0.24"/>
<stop offset="1" stop-color="white" stop-opacity="0.53"/>
</linearGradient>
<linearGradient id="paint31_linear_839_2" x1="310.579" y1="137.049" x2="581.408" y2="571.117" gradientUnits="userSpaceOnUse">
<stop stop-color="white"/>
<stop offset="0.314403" stop-color="white" stop-opacity="0.11"/>
<stop offset="0.637164" stop-color="white" stop-opacity="0.24"/>
<stop offset="1" stop-color="white" stop-opacity="0.53"/>
</linearGradient>
<linearGradient id="paint32_linear_839_2" x1="288.377" y1="127.556" x2="577.759" y2="548.452" gradientUnits="userSpaceOnUse">
<stop stop-color="white"/>
<stop offset="0.314403" stop-color="white" stop-opacity="0.11"/>
<stop offset="0.637164" stop-color="white" stop-opacity="0.24"/>
<stop offset="1" stop-color="white" stop-opacity="0.53"/>
</linearGradient>
<linearGradient id="paint33_linear_839_2" x1="269.652" y1="108.748" x2="585.728" y2="514.987" gradientUnits="userSpaceOnUse">
<stop stop-color="white"/>
<stop offset="0.314403" stop-color="white" stop-opacity="0.11"/>
<stop offset="0.637164" stop-color="white" stop-opacity="0.24"/>
<stop offset="1" stop-color="white" stop-opacity="0.53"/>
</linearGradient>
<linearGradient id="paint34_linear_839_2" x1="255.901" y1="88.6011" x2="599.731" y2="450.025" gradientUnits="userSpaceOnUse">
<stop stop-color="white"/>
<stop offset="0.314403" stop-color="white" stop-opacity="0.11"/>
<stop offset="0.637164" stop-color="white" stop-opacity="0.24"/>
<stop offset="1" stop-color="white" stop-opacity="0.53"/>
</linearGradient>
<linearGradient id="paint35_linear_839_2" x1="238.107" y1="72.6709" x2="595.084" y2="377.447" gradientUnits="userSpaceOnUse">
<stop stop-color="white"/>
<stop offset="0.314403" stop-color="white" stop-opacity="0.11"/>
<stop offset="0.637164" stop-color="white" stop-opacity="0.24"/>
<stop offset="1" stop-color="white" stop-opacity="0.53"/>
</linearGradient>
<linearGradient id="paint36_linear_839_2" x1="214.397" y1="68.1126" x2="563.335" y2="312.351" gradientUnits="userSpaceOnUse">
<stop stop-color="white"/>
<stop offset="0.314403" stop-color="white" stop-opacity="0.11"/>
<stop offset="0.637164" stop-color="white" stop-opacity="0.24"/>
<stop offset="1" stop-color="white" stop-opacity="0.53"/>
</linearGradient>
<linearGradient id="paint37_linear_839_2" x1="181.184" y1="64.9263" x2="493.498" y2="228.941" gradientUnits="userSpaceOnUse">
<stop stop-color="white"/>
<stop offset="0.314403" stop-color="white" stop-opacity="0.11"/>
<stop offset="0.637164" stop-color="white" stop-opacity="0.24"/>
<stop offset="1" stop-color="white" stop-opacity="0.53"/>
</linearGradient>
<linearGradient id="paint38_linear_839_2" x1="148.625" y1="67.047" x2="412.416" y2="172.399" gradientUnits="userSpaceOnUse">
<stop stop-color="white"/>
<stop offset="0.314403" stop-color="white" stop-opacity="0.11"/>
<stop offset="0.637164" stop-color="white" stop-opacity="0.24"/>
<stop offset="1" stop-color="white" stop-opacity="0.53"/>
</linearGradient>
<linearGradient id="paint39_linear_839_2" x1="120.482" y1="70.7957" x2="474.152" y2="307.218" gradientUnits="userSpaceOnUse">
<stop stop-color="white"/>
<stop offset="0.314403" stop-color="white" stop-opacity="0.11"/>
<stop offset="0.637164" stop-color="white" stop-opacity="0.24"/>
<stop offset="1" stop-color="white" stop-opacity="0.53"/>
</linearGradient>
<linearGradient id="paint40_linear_839_2" x1="82.6968" y1="75.9177" x2="461.242" y2="497.934" gradientUnits="userSpaceOnUse">
<stop stop-color="white"/>
<stop offset="0.314403" stop-color="white" stop-opacity="0.11"/>
<stop offset="0.637164" stop-color="white" stop-opacity="0.24"/>
<stop offset="1" stop-color="white" stop-opacity="0.53"/>
</linearGradient>
</defs>
</svg>
