<svg width="696" height="91" viewBox="0 0 696 91" fill="none" xmlns="http://www.w3.org/2000/svg">
<path fill-rule="evenodd" clip-rule="evenodd" d="M88.5921 76.7424L77.2281 73.6635C79.0274 72.432 80.732 71.0583 82.4366 69.4478C86.1773 65.8005 89.1603 61.3954 91.0544 56.3744C92.9957 51.4482 93.9901 46.2378 93.9901 40.6485C93.9901 35.0591 92.9484 29.8487 91.0544 25.0172C89.113 19.9963 86.1773 15.5437 82.4366 11.8017C74.4818 4.12818 63.2598 0.00721987 49.8597 0.00721987H44.1777C30.7303 0.00721987 19.5083 4.12818 11.5534 11.8491C7.81278 15.5911 4.82972 20.0436 2.93571 25.0646C0.994353 29.8487 0 35.2012 0 40.6958C0 46.1904 1.0417 51.4956 2.93571 56.4218C4.87707 61.4427 7.81278 65.8953 11.5534 69.4952C19.5083 77.2161 30.7776 81.3371 44.1777 81.3371H48.9601L84.9935 90.7632C85.6564 90.8579 86.2246 91 86.7928 91C89.9653 91 92.9484 88.8211 93.848 85.5527C94.8897 81.6686 92.4749 77.8319 88.6395 76.7898L88.5921 76.7424ZM14.3944 40.6485C14.3944 24.5909 25.7585 14.4543 44.1777 14.4543H49.8597C68.1369 14.4543 79.643 24.5909 79.643 40.6485C79.643 56.706 68.2789 66.8426 50.0018 66.8426H44.225C25.8058 66.8426 14.4418 56.8007 14.4418 40.6485H14.3944ZM185.991 0.00721987C182.014 0.00721987 178.7 3.32294 178.7 7.3018V40.6485C178.7 53.2956 171.976 66.8426 153.036 66.8426H147.922C129.077 66.8426 122.353 53.2956 122.353 40.6485V7.3018C122.353 3.32294 119.038 0.00721987 115.061 0.00721987C111.083 0.00721987 107.769 3.32294 107.769 7.3018V40.6485C107.769 46.1431 108.669 51.3535 110.373 55.9955C112.078 61.0164 114.682 65.469 118.091 69.211C125.383 77.074 135.706 81.2423 147.875 81.2423H152.988C165.252 81.2423 175.622 77.0266 182.866 69.211C186.276 65.469 188.88 61.0164 190.584 55.9955C192.289 51.3535 193.094 46.0957 193.094 40.6485V7.3018C193.141 3.32294 189.969 0.00721987 185.991 0.00721987ZM263.93 0.00721987H218.947C214.97 0.00721987 211.655 3.32294 211.655 7.3018C211.655 11.2807 214.97 14.4543 218.947 14.4543H263.93C270.843 14.4543 276.525 20.1384 276.525 27.1961V33.4486H229.601C216.438 33.4486 205.642 44.1536 205.642 57.3691C205.642 70.5846 216.438 81.2897 229.601 81.2897H248.352C252.329 81.2897 255.644 78.1161 255.644 73.9951C255.644 69.8741 252.329 66.8426 248.352 66.8426H229.601C224.392 66.8426 220.178 62.6269 220.178 57.3691C220.178 52.1114 224.392 47.8957 229.601 47.8957H276.525V74.0425C276.525 78.1161 279.839 81.3371 283.817 81.3371C287.794 81.3371 290.967 78.1634 290.967 74.0425V27.1961C290.967 19.9015 288.22 13.0806 283.107 7.96494C277.993 2.84926 271.222 0.00721987 263.93 0.00721987ZM375.297 66.8426H321.318V7.3018C321.318 3.32294 318.004 0.00721987 314.026 0.00721987C310.049 0.00721987 306.876 3.32294 306.876 7.3018V73.9951C306.876 78.0687 310.049 81.2897 314.026 81.2897H375.297C379.275 81.2897 382.589 78.1161 382.589 73.9951C382.589 69.8741 379.275 66.8426 375.297 66.8426ZM450.868 33.4012H413.272C408.064 33.4012 403.85 29.0908 403.85 23.9751C403.85 18.8594 408.064 14.4069 413.272 14.4069H462.706C466.683 14.4069 469.998 11.2333 469.998 7.25443C469.998 3.27557 466.683 0.00721987 462.706 0.00721987H413.272C400.109 0.00721987 389.408 10.807 389.408 23.9751C389.408 37.1433 400.109 47.8483 413.272 47.8483H450.868C456.077 47.8483 460.291 52.064 460.291 57.3218C460.291 62.5796 456.077 66.7953 450.868 66.7953H401.435C397.457 66.7953 394.143 69.9689 394.143 73.9477C394.143 77.9266 397.457 81.2423 401.435 81.2423H450.868C464.032 81.2423 474.733 70.5373 474.733 57.3218C474.733 44.1063 464.032 33.4012 450.868 33.4012ZM548.694 47.8483C561.857 47.8483 572.558 37.0485 572.558 23.9751C572.558 10.9017 561.904 0.00721987 548.741 0.00721987H515.454C507.973 0.00721987 500.917 2.944 495.567 8.29652C490.216 13.649 487.28 20.7068 487.28 28.1908V53.2482C487.28 60.7796 490.216 67.8847 495.472 73.0951C500.823 78.3055 507.736 81.2897 515.264 81.2897H559.489C563.467 81.2897 566.639 78.1161 566.639 73.9951C566.639 69.8741 563.467 66.8426 559.489 66.8426H515.264C507.878 66.8426 501.722 60.7796 501.722 53.2482V47.8483H548.788H548.694ZM501.628 28.1908C501.628 20.7068 507.783 14.4543 515.359 14.4543H548.646C553.855 14.4543 558.069 18.7647 558.069 24.0225C558.069 29.2803 553.855 33.4486 548.646 33.4486H501.58V28.2382L501.628 28.1908ZM691.691 0.575629C688.945 -0.561189 685.914 0.00721993 683.831 2.09139L640.553 43.7273L597.228 2.09139C595.191 0.00721993 592.114 -0.561189 589.367 0.575629C586.763 1.71245 585.059 4.36502 585.059 7.3018V73.9951C585.059 78.0687 588.231 81.2897 592.208 81.2897C596.186 81.2897 599.5 78.0687 599.5 73.9951V24.2593L635.534 58.9796C638.138 61.5848 642.92 61.5848 645.525 58.9796L681.558 24.2593V73.9951C681.558 78.0687 684.873 81.2897 688.85 81.2897C692.828 81.2897 696 78.0687 696 73.9951V7.3018C696 4.36502 694.295 1.71245 691.691 0.575629Z" fill="url(#paint0_radial_466_556)"/>
<defs>
<radialGradient id="paint0_radial_466_556" cx="0" cy="0" r="1" gradientUnits="userSpaceOnUse" gradientTransform="translate(348 45.5) rotate(90) scale(325 325)">
<stop stop-color="white"/>
<stop offset="1" stop-color="white" stop-opacity="0.6"/>
</radialGradient>
</defs>
</svg>
